<?xml version="1.0" encoding="UTF-8"?>
<!-- Generated by Pixelmator Pro 3.6.12 -->
<svg width="650" height="350" viewBox="0 0 650 350" xmlns="http://www.w3.org/2000/svg">
    <g id="Agrupar">
        <path id="Traado" fill="#ffffff" fill-rule="evenodd" stroke="none" d="M 237.875 85.951691 L 237.875 229 L 266.404755 223.973816 C 269.922089 223.587738 273.439575 222.040558 276.566132 219.721207 C 279.301758 217.401855 281.255951 214.308929 282.428314 210.442413 L 323.073517 52.702606 L 255.8526 64.687683 C 250.772034 65.460999 246.082184 68.167267 242.955627 72.033386 C 239.829102 75.899597 237.875 80.925659 237.875 85.951691 Z"/>
        <path id="path1" fill="#ffffff" fill-rule="evenodd" stroke="none" d="M 282.428894 210.442413 L 324.246582 46.903412 C 325.419067 43.423828 327.373138 40.330902 330.108887 37.624481 C 332.844513 35.30484 336.362 33.758362 339.879333 32.985138 L 410.617584 21 L 410.617584 182.21994 L 295.326019 201.937195 C 290.24527 203.096878 283.601379 205.416214 282.428894 210.442413 Z"/>
        <path id="path2" fill="#ff0000" fill-rule="evenodd" stroke="none" d="M 394.202667 65.847656 C 363.719421 82.08548 325.809998 107.988892 310.958923 123.066864 L 295.716949 158.635742 L 302.75177 131.57251 L 273.831085 102.96283 L 270.704529 102.96283 L 249.209534 124.226837 L 249.209534 126.546478 L 292.590393 169.460709 C 317.602814 137.758362 360.592865 96.776978 396.157288 68.553925 L 396.939453 67.394104 L 396.547668 66.234161 L 395.375153 65.460999 L 394.202667 65.847656 Z"/>
    </g>
    <g id="g1">
        <path id="path3" fill="#ffffff" fill-rule="evenodd" stroke="none" d="M 591.005005 281.211914 L 591.005005 270.08551 L 586.067017 270.899597 L 584.695007 272.2565 L 579.208984 273.613403 L 578.934021 280.126404 C 576.73999 279.312195 573.997009 278.769501 571.528015 278.769501 C 567.687012 278.769501 564.120972 279.583618 561.103027 281.483215 C 557.810974 283.382904 555.34198 286.096619 553.695984 289.353088 C 550.953003 294.780701 549.856018 304.007019 556.164978 307.535004 L 552.325012 309.977997 C 548.758972 312.963013 547.935974 316.218994 551.776001 319.747009 C 548.210022 321.375 542.174988 324.903015 541.901001 328.973999 C 541.078003 338.200989 553.697021 341.729004 561.103027 341.729004 C 566.590027 341.729004 571.802002 340.372009 576.465027 337.11499 C 578.385986 336.029999 579.757019 334.401001 581.129028 332.502014 C 582.226013 330.60199 583.049011 328.703003 583.323975 326.531982 C 583.872009 319.476013 578.934021 316.761993 573.174011 315.134003 C 569.333008 314.320007 565.492004 313.234009 561.651978 311.606018 C 560.280029 310.519989 561.103027 309.705994 561.926025 308.891998 L 566.041016 309.434998 C 569.606995 309.434998 572.898987 308.621002 575.916992 307.264008 C 578.934021 305.635986 581.403015 303.192993 583.323975 300.480011 C 584.969971 297.765991 585.518005 294.780609 585.518005 291.795502 C 585.518005 288.810394 584.695007 285.825317 583.049011 283.111511 L 591.005005 281.211914 Z M 567.960999 325.174988 C 570.156006 325.989014 572.075989 327.074005 571.802002 329.516998 C 571.528015 333.044983 566.590027 333.859009 563.572021 333.859009 C 559.731995 333.859009 552.051025 332.22998 552.598999 327.074005 C 552.874023 325.174988 555.890991 323.274994 557.263 322.460999 C 561.103027 323.003998 564.669983 324.088989 567.960999 325.174988 Z M 574.544983 291.252808 C 573.997009 295.594788 571.802002 302.651001 566.315002 302.651001 C 561.103027 302.651001 562.474976 295.323395 563.572021 292.338318 C 564.669006 289.081787 567.138 285.282501 570.979004 285.282501 C 574.544983 285.282501 574.820007 288.539001 574.544983 291.252808 Z"/>
        <path id="path4" fill="#ffffff" fill-rule="evenodd" stroke="none" d="M 63.477997 270.899597 L 62.106003 272.2565 L 56.619995 273.613403 L 56.345993 279.855011 C 54.151001 278.769501 51.408005 278.498108 48.938995 278.498108 C 45.098007 278.498108 41.531998 279.312195 38.514999 281.211914 C 35.223007 283.111511 32.753998 285.825317 31.108002 289.081787 C 28.365005 294.509308 27.266998 303.735992 33.576996 307.264008 L 29.735992 309.705994 C 26.169998 312.69101 25.347 315.947998 29.186996 319.476013 C 25.621002 321.104004 19.585999 324.632019 19.311996 328.703003 C 18.488998 337.929016 31.108002 341.457001 38.514999 341.457001 C 44.001007 341.457001 49.212997 340.100006 53.876999 336.843994 C 55.796997 335.757996 57.169006 334.130005 58.266006 332.22998 C 59.363007 330.330994 60.186005 328.431 60.460999 326.26001 C 61.283005 319.20401 56.070999 316.490997 50.309998 314.862 C 46.470001 314.048004 42.628998 312.963013 38.789001 311.334991 C 37.417007 310.248993 38.240005 309.434998 39.063004 308.621002 L 43.451996 309.164001 C 47.018997 309.164001 50.309998 308.348999 53.328003 306.721008 C 56.345993 305.093018 58.815002 302.651001 60.735001 299.937012 C 62.106003 297.222992 62.929001 294.237915 62.929001 291.252808 C 62.929001 288.267609 62.106003 285.282501 60.460999 282.568787 L 60.735001 281.754608 L 68.690002 280.126404 L 68.690002 269 L 63.477997 270.899597 Z M 45.373001 325.174988 C 47.567001 325.989014 49.488007 327.074005 49.212997 329.516998 C 48.938995 333.044983 44.001007 333.859009 40.983002 333.859009 C 37.143005 333.859009 29.462006 332.22998 30.009995 327.074005 C 30.285004 325.174988 33.028 323.274994 34.673996 322.460999 C 38.514999 323.003998 42.080994 324.088989 45.373001 325.174988 Z M 51.955994 291.252808 C 51.408005 295.594788 49.212997 302.651001 43.727005 302.651001 C 38.514999 302.651001 39.886002 295.323395 40.983002 292.338318 C 42.080994 289.081787 44.550003 285.282501 48.389999 285.282501 C 51.955994 285.282501 52.231003 288.539001 51.955994 291.252808 Z"/>
        <path id="path5" fill="#ffffff" fill-rule="evenodd" stroke="none" d="M 242.063995 257.602203 L 233.55899 258.959106 L 228.622009 280.397797 C 224.231995 277.68399 217.100006 278.498108 212.710999 280.126404 C 207.223999 282.297394 202.561005 286.096619 199.269012 290.981384 C 194.880005 297.494019 192.959015 305.364014 193.234009 313.234009 C 193.782013 318.119019 196.526001 322.190002 202.011993 322.190002 C 210.242004 322.190002 216.825989 317.304993 221.489014 310.791992 C 220.665985 314.320007 220.391998 317.847992 220.665985 321.375 C 220.94101 323.274994 229.993011 321.375 231.914001 320.561005 C 232.187988 316.218994 232.737 311.877014 233.834015 307.807007 L 245.355011 261.130096 C 246.178009 257.330811 245.355011 257.330811 242.063995 257.602203 Z M 223.13501 298.851013 C 220.665985 303.735992 214.356995 312.69101 208.869995 312.69101 C 204.207001 312.69101 206.127014 303.464996 206.950012 301.022003 C 208.596008 296.138 211.613007 290.438599 216.277008 287.996307 C 219.295013 286.367981 224.231995 285.825317 226.700989 288.539001 C 225.877991 292.066895 224.781006 295.323395 223.13501 298.851013 Z"/>
        <path id="path6" fill="#ffffff" fill-rule="evenodd" stroke="none" d="M 431.348022 288.539001 L 440.125977 288.539001 C 442.594971 288.539001 444.515015 283.111511 444.789978 280.669098 L 433.268005 280.669098 C 434.36499 276.598511 435.737 272.527893 436.559998 268.457214 C 432.994019 268.457214 429.427002 269.271393 426.409973 271.17099 C 423.940979 273.884705 422.294983 277.412598 421.745972 280.940491 L 418.453979 280.940491 C 415.984985 280.940491 414.065002 286.367981 413.791016 288.810394 L 419.825989 288.810394 L 414.614014 308.078003 C 413.791016 310.791992 413.517029 313.505981 413.791016 316.218994 L 414.340027 318.661987 C 414.614014 319.476013 415.161987 320.290009 415.984985 320.833008 L 418.179993 322.190002 L 420.922974 322.460999 C 423.392029 322.460999 431.348022 322.460999 433.541992 319.476013 C 435.463013 317.03299 436.559998 314.048004 436.559998 311.062988 C 433.541992 312.419983 430.525024 313.234009 427.232971 313.234009 L 425.586975 312.148987 C 425.312012 311.062988 425.312012 309.705994 425.861023 308.621002 L 431.348022 288.539001 Z"/>
        <path id="path7" fill="#ffffff" fill-rule="evenodd" stroke="none" d="M 276.354004 283.654297 C 275.531006 282.026001 274.43399 280.940491 272.787994 280.126404 C 270.868011 279.312195 268.673004 278.769501 266.477997 278.769501 C 263.734985 278.769501 260.717987 279.312195 258.248993 280.126404 C 255.779999 281.211914 253.311005 282.568695 251.390991 284.468384 C 249.196014 286.367981 247.549988 288.267609 245.903992 290.709991 C 244.257996 293.152405 243.161011 295.594788 242.063995 298.036987 C 241.240997 300.751007 240.417999 303.464996 240.143005 306.178009 C 239.595001 308.891998 239.868988 311.877014 240.691986 314.591003 C 241.515015 316.761993 242.886993 318.932983 244.807007 320.290009 C 247.276001 321.647003 250.019012 322.460999 252.761993 322.460999 C 255.230988 322.460999 257.700012 322.190002 260.169006 321.647003 L 265.929993 319.476013 L 269.769989 316.490997 L 271.141998 314.320007 C 271.69101 313.505981 271.69101 312.419983 271.964996 311.334991 L 271.964996 309.164001 C 271.964996 308.621002 271.69101 308.078003 271.141998 307.807007 L 262.911987 312.419983 C 261.265991 312.963013 259.346008 313.234009 257.700012 313.234009 L 254.957001 312.963013 C 254.134003 312.69101 253.311005 312.148987 252.761993 311.334991 C 251.665009 309.705994 251.390991 307.807007 251.665009 306.178009 L 251.665009 304.549988 L 261.540985 302.651001 L 266.752991 300.480011 C 268.398987 299.665009 270.045013 298.851013 271.415985 297.494019 C 272.787994 296.408997 273.88501 295.052002 274.983002 293.423798 C 275.806 291.795502 276.354004 290.167297 276.627991 288.267609 C 277.450989 286.910797 277.177002 285.011108 276.354004 283.654297 Z M 265.106995 292.609589 C 263.734985 293.966492 262.364014 295.052002 260.717987 295.594788 C 258.52301 296.679993 256.053986 297.222992 253.311005 297.222992 C 253.859009 295.052002 254.957001 292.880981 256.328003 290.709991 C 257.151001 289.081787 258.52301 287.996307 260.169006 286.910797 C 261.265991 286.096619 262.638 285.553894 263.734985 285.553894 L 265.654999 286.096619 C 265.929993 286.367981 266.477997 286.910797 266.477997 287.453491 L 266.477997 289.081787 C 266.752991 290.438599 265.929993 291.795502 265.106995 292.609589 Z"/>
        <path id="path8" fill="#ffffff" fill-rule="evenodd" stroke="none" d="M 128.766998 279.040894 C 125.75 279.040894 122.457993 279.040894 119.440002 279.583618 L 109.289993 322.460999 C 112.582001 322.731995 116.147995 322.190002 119.166 321.375 C 121.085999 320.833008 121.908997 320.290009 122.457993 318.390015 L 130.962006 281.754608 C 131.785004 278.769501 130.688004 279.040894 128.766998 279.040894 Z"/>
        <path id="path9" fill="#ffffff" fill-rule="evenodd" stroke="none" d="M 495.814026 279.040894 C 492.796021 279.040894 489.505005 279.040894 486.487 279.583618 L 476.336975 322.460999 C 479.629028 322.731995 483.195007 322.190002 486.487 321.375 C 488.406982 320.833008 489.22998 320.290009 489.778992 318.390015 L 498.28302 281.754608 C 498.83197 278.769501 497.734009 279.040894 495.814026 279.040894 Z"/>
        <path id="path10" fill="#ffffff" fill-rule="evenodd" stroke="none" d="M 163.606995 278.769501 C 159.765991 278.498108 155.925995 279.312317 152.359009 280.669098 C 148.792999 282.026001 145.501007 283.925598 142.757996 286.639404 C 137.820007 291.252808 134.253998 297.222992 132.608002 304.007019 C 130.962006 310.248993 130.139008 322.460999 139.466003 322.460999 C 143.307007 322.190002 147.147003 321.104004 150.713013 319.20401 C 154.005005 317.304993 157.02301 314.591003 159.21701 311.334991 C 158.942993 312.69101 157.02301 322.460999 158.669006 322.460999 C 162.234985 322.460999 166.075989 321.917999 169.367004 320.833008 C 169.367004 318.119019 169.641998 315.404999 170.190002 312.963013 L 177.872009 281.483307 C 173.208008 279.583618 168.269989 279.040894 163.606995 278.769501 Z M 160.588989 299.393982 C 158.394012 303.735992 152.359009 312.419983 146.598999 312.419983 C 142.484009 312.419983 144.403992 303.735992 145.22699 301.565002 C 146.872986 295.594788 151.261993 288.267609 157.571991 286.639404 C 160.040009 286.096619 162.509003 286.096619 164.977997 286.910797 C 163.606995 291.524109 162.234985 295.594788 160.588989 299.393982 Z"/>
        <path id="path11" fill="#ffffff" fill-rule="evenodd" stroke="none" d="M 502.945984 287.453491 C 501.848999 289.353088 501.026001 291.524109 501.026001 293.695099 C 501.026001 295.866089 501.575012 298.036987 502.945984 299.937012 C 505.140991 302.378998 507.609985 304.821991 510.627991 306.721008 C 512.547974 308.348999 514.468018 310.791992 511.450989 312.69101 C 508.70697 314.591003 503.768982 313.234009 500.752014 312.419983 L 498.008972 311.334991 C 497.460022 311.062988 497.185974 311.062988 496.637024 311.606018 C 495.814026 312.69101 495.539978 313.777008 495.265015 314.862 C 494.991028 315.947998 495.265015 317.304993 495.814026 318.390015 C 497.460022 321.104004 502.671997 321.917999 505.414978 321.917999 C 508.981995 322.190002 512.27301 321.375 515.291016 319.747009 C 518.309021 318.119019 521.052002 315.677002 522.971985 312.963013 C 524.06897 311.062988 524.617981 308.891998 524.617981 306.992981 C 524.617981 304.821991 523.794983 302.651001 522.424011 301.022003 C 519.955017 298.580017 517.486023 296.138 514.468018 294.237915 C 512.822021 292.609589 510.901978 290.709991 512.822021 288.267609 C 515.017029 286.096619 519.132019 286.639404 521.601013 287.453491 L 523.794983 287.453491 C 524.892029 286.910797 525.715027 286.096619 526.263977 285.011108 C 526.812988 283.925598 527.361023 282.840088 527.361023 281.754608 C 526.263977 280.669098 524.617981 279.855011 523.247009 279.312195 C 521.601013 278.769501 519.955017 278.498108 518.309021 278.769501 C 515.017029 278.769501 511.999023 279.312195 508.981995 280.940491 C 507.060974 282.297394 504.59198 284.739807 502.945984 287.453491 Z"/>
        <path id="path12" fill="#ffffff" fill-rule="evenodd" stroke="none" d="M 359.475006 278.769501 C 356.457001 278.769501 353.438995 279.583618 350.696014 280.940491 C 347.953003 282.297394 345.484009 284.196991 343.563995 286.639404 C 342.740997 287.453491 341.917999 288.267609 341.368988 289.353088 C 341.917999 284.196991 340.54599 279.040894 333.687988 279.040894 C 326.006989 279.040894 319.971985 283.654297 315.583008 289.353088 L 315.308014 289.353088 C 315.583008 288.539001 317.502991 279.040894 316.406006 279.040894 C 312.565002 279.040894 308.723999 279.583618 304.884003 280.669098 C 304.609985 282.297394 304.609985 284.739807 304.061005 286.367981 L 295.28299 322.460999 C 297.47699 322.731995 306.529999 322.460999 307.902008 320.290009 C 308.175995 319.20401 308.723999 318.390015 308.723999 317.304993 C 309.546997 312.963013 310.919006 308.348999 312.290985 304.007019 C 314.210999 299.665009 321.342987 288.539001 326.829987 288.539001 C 330.122009 288.539001 329.299011 292.066895 328.75 294.237915 L 322.165985 318.661987 C 321.891998 319.476013 321.069 322.190002 322.714996 322.190002 C 326.556 322.190002 330.395996 321.647003 334.237 320.561005 L 337.803009 305.635986 C 339.174988 300.480011 347.130005 288.267609 352.890991 288.267609 C 356.183014 288.267609 355.359985 291.795502 354.811005 293.966492 L 348.22699 318.390015 C 347.953003 319.20401 347.130005 321.917999 348.776001 321.917999 C 352.615997 321.917999 356.457001 321.375 360.298004 320.290009 L 366.881012 293.695099 C 367.979004 287.453491 368.802002 278.769501 359.475006 278.769501 Z"/>
        <path id="path13" fill="#ffffff" fill-rule="evenodd" stroke="none" d="M 467.283997 300.480011 C 469.752991 299.393982 471.947998 297.765991 473.593994 295.594788 C 475.23999 293.423798 476.336975 290.981384 476.885986 288.267609 C 477.434021 281.483215 472.221985 278.498108 466.187012 278.498108 C 454.390991 278.498108 445.612976 287.182098 441.771973 297.765991 C 439.577026 302.921997 439.302979 308.891998 440.674988 314.320007 C 441.223022 316.490997 442.869019 318.661987 444.789978 320.018982 C 447.257996 321.375 450.002014 322.190002 453.018982 322.190002 C 459.054016 322.190002 465.913025 320.833008 469.479004 317.03299 C 471.398987 314.320007 472.495972 311.334991 472.495972 308.078003 C 468.106995 311.062988 462.89502 312.963013 457.682983 313.234009 C 451.921997 313.234009 451.64801 309.705994 451.921997 304.821991 C 457.408997 304.278992 462.620972 302.921997 467.283997 300.480011 Z M 459.877014 287.182098 C 460.974976 286.367981 462.346008 285.825317 463.718018 285.825317 L 465.913025 286.910797 L 466.460999 287.996307 C 466.460999 288.267609 466.736023 288.810394 466.460999 289.353088 C 466.187012 292.609589 462.89502 294.780609 460.426025 295.866089 C 458.231018 296.679993 455.763 297.222992 453.018982 297.494019 C 454.117004 293.152405 456.585999 289.624512 459.877014 287.182098 Z"/>
        <path id="path14" fill="#ffffff" fill-rule="evenodd" stroke="none" d="M 112.856995 278.769501 C 110.662003 278.498108 101.608994 278.769501 100.238007 280.940491 C 99.962997 282.026001 99.414993 282.840088 99.414993 283.925598 C 98.591995 288.539001 97.494003 292.880981 95.848007 297.222992 C 93.927994 301.565002 86.796005 312.69101 81.309006 312.69101 C 78.016998 312.69101 78.839996 309.164001 79.389008 306.992981 L 85.973007 282.568787 C 86.246994 281.754608 87.070007 279.040894 85.423996 279.040894 C 81.584 279.040894 77.742996 279.583618 73.901993 280.669098 L 67.319 307.264008 C 65.673004 313.777008 64.850006 322.460999 73.901993 322.460999 C 81.584 322.460999 87.619003 317.847992 92.007996 312.148987 L 92.281998 312.148987 C 92.007996 312.963013 90.087997 322.460999 91.184998 322.460999 C 95.024994 322.460999 98.865997 321.917999 102.707001 320.833008 C 102.981003 318.932983 102.981003 317.03299 103.529999 315.134003 L 110.936005 283.382904 L 112.856995 278.769501 Z"/>
        <path id="path15" fill="#ffffff" fill-rule="evenodd" stroke="none" d="M 615.14502 278.769501 C 609.383972 278.769501 603.89801 280.669098 599.508972 283.925598 C 595.119995 287.182098 591.552979 292.066895 590.182007 297.222992 C 585.79303 309.434998 587.164001 322.190002 602.801025 322.190002 C 606.367004 322.190002 609.658997 321.647003 612.950989 320.290009 C 616.242981 318.932983 619.26001 317.03299 621.455017 314.591003 C 623.924011 312.148987 625.843994 309.164001 627.216003 306.178009 C 632.427979 294.237915 631.879028 278.769501 615.14502 278.769501 Z M 615.69397 301.565002 C 614.322021 306.178009 610.755981 314.591003 604.994995 314.591003 C 598.685974 314.591003 600.880005 304.549988 601.978027 300.751007 C 603.348999 295.866089 606.916016 286.367981 613.224976 286.367981 C 620.083008 286.096619 617.065979 297.765991 615.69397 301.565002 Z"/>
        <path id="path16" fill="#ffffff" fill-rule="evenodd" stroke="none" d="M 395.684998 278.769501 C 383.341003 278.769501 374.287994 286.367981 370.447998 297.222992 C 366.058014 309.434998 367.70401 322.190002 383.06601 321.917999 C 386.632996 321.917999 389.924988 321.375 393.216003 320.018982 C 396.507996 318.661987 399.252014 316.761993 401.721008 314.320007 C 404.189026 311.877014 406.109985 309.164001 407.481018 305.906982 C 412.968018 294.237915 412.14502 278.769501 395.684998 278.769501 Z M 396.234009 301.565002 C 394.862 306.178009 391.29599 314.591003 385.260986 314.591003 C 378.951996 314.591003 381.145996 304.549988 382.243011 300.751007 C 383.61499 295.866089 387.181 286.367981 393.491028 286.367981 C 400.348999 286.096619 397.330994 297.765991 396.234009 301.565002 Z"/>
        <path id="path17" fill="#ffffff" fill-rule="evenodd" stroke="none" d="M 124.104004 274.698914 L 126.572998 275.241608 L 129.042007 274.698914 C 129.865005 274.42749 130.688004 273.884705 131.235992 273.070618 C 132.059006 272.527893 132.608002 271.713684 132.882004 270.628204 C 133.431 269.542694 133.705002 268.728607 133.705002 267.643097 L 133.156998 264.115204 C 132.608002 263.301086 132.059006 262.758301 131.235992 262.487 L 128.492996 261.944214 L 124.378006 263.843811 C 123.554993 264.386597 123.007004 265.200684 122.457993 266.286194 C 121.908997 267.371704 121.634995 268.457214 121.634995 269.814087 C 121.634995 271.17099 121.908997 272.2565 122.457993 273.34201 C 122.457993 273.613403 123.281006 274.42749 124.104004 274.698914 Z"/>
        <path id="path18" fill="#ffffff" fill-rule="evenodd" stroke="none" d="M 490.327026 274.698914 L 492.796021 275.241608 L 495.265015 274.698914 C 496.088013 274.42749 496.911011 273.884705 497.460022 273.070618 C 498.28302 272.527893 498.83197 271.713684 499.380005 270.628204 C 499.929016 269.542694 500.203003 268.728607 500.203003 267.643097 C 500.47699 266.286194 500.203003 265.200684 499.655029 264.115204 C 499.380005 263.301086 498.557007 262.758301 497.734009 262.487 L 494.991028 261.944214 L 490.875977 263.843811 C 490.052979 264.386597 489.22998 265.200684 488.955994 266.286194 C 488.406982 267.371704 488.132996 268.457214 488.132996 269.814087 C 488.132996 271.17099 488.406982 272.2565 488.955994 273.34201 C 488.682007 273.613403 489.505005 274.42749 490.327026 274.698914 Z"/>
        <path id="path19" fill="#ffffff" fill-rule="evenodd" stroke="none" d="M 465.913025 273.884705 L 478.257019 264.386597 C 478.531982 263.029694 472.221985 261.944214 470.302002 261.944214 C 469.752991 261.944214 468.929993 262.215607 468.382019 262.758301 C 466.736023 263.843811 460.974976 270.899597 461.52301 272.2565 C 461.797974 273.34201 464.815002 273.884705 465.913025 273.884705 Z"/>
    </g>
</svg>
